<?xml version="1.0" standalone="no"?>
<!DOCTYPE svg PUBLIC "-//W3C//DTD SVG 20010904//EN"
 "http://www.w3.org/TR/2001/REC-SVG-20010904/DTD/svg10.dtd">
<svg version="1.0" xmlns="http://www.w3.org/2000/svg"
 width="512.000000pt" height="512.000000pt" viewBox="0 0 512.000000 512.000000"
 preserveAspectRatio="xMidYMid meet">
<metadata>
Created by potrace 1.11, written by Peter Selinger 2001-2013
</metadata>
<g transform="translate(0.000000,512.000000) scale(0.100000,-0.100000)"
fill="#000000" stroke="none">
<path d="M2265 5108 c-126 -15 -208 -31 -325 -60 -63 -17 -129 -33 -145 -37
-17 -4 -39 -13 -50 -18 -11 -6 -24 -11 -28 -11 -7 0 -46 -14 -92 -32 -155 -64
-330 -153 -452 -232 -54 -34 -100 -65 -103 -68 -3 -3 -23 -18 -45 -35 -22 -16
-42 -31 -45 -35 -3 -3 -23 -18 -45 -35 -52 -38 -322 -308 -360 -360 -17 -22
-32 -42 -35 -45 -4 -3 -19 -23 -35 -45 -17 -22 -32 -42 -35 -45 -3 -3 -34 -49
-68 -103 -79 -122 -168 -297 -232 -452 -18 -46 -32 -85 -32 -92 0 -4 -5 -17
-11 -28 -5 -11 -14 -33 -18 -50 -4 -16 -20 -82 -37 -145 -54 -216 -72 -367
-72 -622 0 -108 5 -232 10 -275 20 -147 31 -218 46 -278 9 -33 20 -76 24 -95
34 -133 82 -273 130 -375 15 -33 38 -82 50 -110 13 -27 25 -52 29 -55 3 -3 17
-27 31 -55 14 -27 27 -52 30 -55 6 -6 24 -35 45 -73 15 -27 134 -197 145 -207
3 -3 27 -32 54 -65 63 -76 268 -281 321 -320 22 -16 42 -32 45 -36 10 -11 199
-149 204 -149 3 0 36 -19 73 -43 60 -38 257 -138 353 -180 42 -18 269 -92 325
-106 302 -74 628 -100 876 -71 177 21 246 31 299 45 30 8 93 23 140 35 81 20
147 42 290 97 61 23 289 132 300 143 3 3 21 14 40 24 62 35 239 154 283 192
12 10 52 44 87 74 83 70 200 187 270 270 30 35 64 75 74 87 38 44 157 221 192
283 10 19 21 37 24 40 11 11 120 239 143 300 55 143 77 209 97 290 12 47 27
110 35 140 17 66 21 95 40 270 33 302 12 585 -66 905 -14 56 -88 283 -106 325
-42 96 -142 293 -180 353 -24 37 -43 70 -43 73 0 5 -138 194 -149 204 -4 3
-20 23 -36 45 -39 53 -244 258 -320 321 -33 27 -62 51 -65 54 -10 11 -180 130
-207 145 -38 21 -67 39 -73 45 -3 3 -27 16 -55 30 -27 14 -52 28 -55 31 -3 4
-27 16 -55 29 -27 12 -77 35 -110 50 -102 48 -242 96 -375 130 -19 4 -62 15
-95 24 -60 15 -131 26 -278 46 -92 12 -472 11 -572 -2z m565 -222 c532 -67
979 -281 1358 -651 207 -201 344 -389 467 -640 173 -352 240 -643 239 -1040 0
-228 -16 -363 -69 -571 -211 -828 -861 -1478 -1689 -1689 -208 -53 -343 -69
-571 -69 -255 0 -409 19 -630 80 -274 76 -551 212 -778 381 -115 87 -308 271
-402 383 -292 352 -475 787 -525 1258 -17 156 -8 461 19 617 109 640 466 1194
1002 1557 319 217 692 351 1089 391 95 10 388 6 490 -7z"/>
<path d="M970 3934 c-82 -22 -172 -67 -220 -110 -97 -88 -201 -277 -246 -449
-23 -87 -27 -119 -27 -255 0 -134 4 -168 26 -250 14 -52 30 -107 36 -122 l11
-28 605 0 605 0 11 28 c69 178 77 433 18 634 -85 292 -302 511 -553 559 -71
13 -203 10 -266 -7z m298 -150 c55 -18 64 -29 33 -39 -30 -9 -92 -75 -112
-119 -25 -54 -25 -157 0 -211 44 -98 131 -155 235 -155 69 0 145 30 185 74 14
14 28 26 32 26 11 0 37 -125 45 -216 7 -82 -9 -231 -27 -266 -9 -17 -41 -18
-504 -18 -363 0 -496 3 -501 12 -18 28 -33 142 -34 245 0 209 54 376 174 538
56 74 112 112 213 141 61 17 190 12 261 -12z"/>
<path d="M3245 3944 c-261 -55 -462 -219 -577 -472 -89 -196 -101 -455 -32
-674 l25 -78 700 2 701 3 17 46 c86 225 71 509 -39 734 -135 277 -396 447
-679 444 -53 -1 -105 -3 -116 -5z m230 -148 c33 -7 75 -20 94 -27 l34 -15 -29
-19 c-72 -46 -106 -107 -112 -201 -7 -113 41 -199 140 -248 96 -48 207 -32
289 42 28 25 51 43 53 41 14 -18 40 -153 44 -232 5 -99 -11 -241 -30 -264 -8
-10 -140 -13 -599 -13 l-589 0 -10 25 c-5 14 -15 66 -21 117 -40 307 118 619
379 752 97 49 245 67 357 42z"/>
<path d="M630 2230 l0 -70 90 0 90 0 -1 -72 c-1 -142 75 -379 201 -627 109
-215 199 -347 339 -495 184 -195 313 -289 509 -373 220 -94 377 -126 622 -126
360 1 708 107 997 305 551 378 744 893 546 1456 l-26 72 -1683 0 -1684 0 0
-70z m2422 -884 c163 -41 295 -121 413 -248 l67 -73 -33 -28 c-112 -93 -314
-213 -476 -281 -216 -91 -493 -131 -708 -102 -109 14 -288 56 -303 71 -10 10
19 108 59 193 110 237 307 404 553 468 130 33 297 33 428 0z"/>
</g>
</svg>

